Coordinates
version=1
nRows=10
nColumns=40
inDegrees=yes

Units are S.I. units (second, meters, Newtons, ...)
Angles are in degrees.

endheader
time	pelvis_tilt	pelvis_list	pelvis_rotation	pelvis_tx	pelvis_ty	pelvis_tz	hip_flexion_r	hip_adduction_r	hip_rotation_r	knee_angle_r	knee_angle_r_beta	ankle_angle_r	subtalar_angle_r	mtp_angle_r	hip_flexion_l	hip_adduction_l	hip_rotation_l	knee_angle_l	knee_angle_l_beta	ankle_angle_l	subtalar_angle_l	mtp_angle_l	lumbar_extension	lumbar_bending	lumbar_rotation	arm_flex_r	arm_add_r	arm_rot_r	elbow_flex_r	pro_sup_r	wrist_flex_r	wrist_dev_r	arm_flex_l	arm_add_l	arm_rot_l	elbow_flex_l	pro_sup_l	wrist_flex_l	wrist_dev_l
     35.62500000	     -4.36199659	     -5.65513990	     -1.90421903	      1.02713367	      0.91182534	      0.52230572	     26.08783260	      2.57832127	    -12.88841146	     25.72222093	     25.72222093	      6.64467203	     -2.69318196	     -3.00746757	      9.99248665	    -12.02261808	     -2.88001760	     50.72895652	     50.72895652	     13.10937960	    -16.61820279	     -2.39236980	    -13.62707067	      6.86296380	      1.64319755	     -7.69825439	    -11.70880076	      1.46789878	     29.20549558	     45.73267887	      0.00000000	      0.00000000	     14.00018218	    -16.71216140	     -6.96945425	    104.05996034	     48.35239729	      0.00000000	      0.00000000
     35.63657143	     -4.40158198	     -5.78280358	     -1.61666046	      1.02684198	      0.91304776	      0.52409990	     25.37589758	      2.65468113	    -13.54416643	     25.44573156	     25.44573156	      7.23452054	     -1.85136719	     -3.14216340	     12.37957592	    -12.40192275	     -2.28566089	     54.66849732	     54.66849732	     12.85397038	    -17.30495409	      1.94592006	    -13.70341445	      7.05316722	      1.73222192	     -5.85347073	    -12.17896775	      2.19877651	     29.77115716	     45.69615672	      0.00000000	      0.00000000	     12.97920221	    -16.07198127	     -6.41629120	    102.69338440	     48.31970437	      0.00000000	      0.00000000
     35.64814286	     -4.45214036	     -5.98798653	     -1.38953022	      1.02648877	      0.91425372	      0.52606849	     24.61103936	      2.92251095	    -13.99332855	     25.00926908	     25.00926908	      7.69834126	     -1.32901476	     -3.26829172	     14.63366705	    -13.05096427	     -2.05538680	     57.98030069	     57.98030069	     11.62117650	    -18.05830843	      2.84935448	    -13.80693312	      7.30108595	      1.89971447	     -3.91598506	    -12.60095134	      2.17407260	     30.41314387	     45.69082072	      0.00000000	      0.00000000	     11.79490016	    -15.55145208	     -5.81725196	    101.55525016	     48.25720915	      0.00000000	      0.00000000
     35.65971429	     -4.43322504	     -5.96560371	     -1.23036855	      1.02606250	      0.91572556	      0.52778327	     23.78447461	      2.84427579	    -14.74818353	     24.64031126	     24.64031126	      8.15870999	      0.02303769	     -3.48252478	     16.86203652	    -13.31420855	     -1.80215513	     61.12444346	     61.12444346	     12.31815537	    -18.35190328	      8.04727277	    -13.90251969	      7.31960540	      1.96569704	     -1.67514445	    -13.05681415	      2.50979799	     30.66565888	     45.68939565	      0.00000000	      0.00000000	     10.93122631	    -15.06371488	     -5.25225759	     98.73670052	     48.18045552	      0.00000000	      0.00000000
     35.67128571	     -4.48074233	     -6.10694097	     -1.16225968	      1.02556989	      0.91691450	      0.52984005	     23.01915923	      3.15256899	    -14.89450516	     24.15714889	     24.15714889	      8.52212706	      0.43193671	     -3.51470191	     18.99487205	    -13.97724562	     -1.81816923	     63.61563864	     63.61563864	     11.80344682	    -18.71479487	      8.65414068	    -14.06161239	      7.43067735	      2.45961421	      0.29847598	    -13.56445742	      2.44125355	     31.26095554	     45.68819136	      0.00000000	      0.00000000	      9.68513730	    -14.32869998	     -4.61440806	     97.78982198	     48.11697528	      0.00000000	      0.00000000
     35.68285714	     -4.56229243	     -6.09995820	     -1.07671436	      1.02501486	      0.91826736	      0.53161940	     22.23351826	      3.20424437	    -15.42511462	     23.61216791	     23.61216791	      8.94109240	      1.49398002	     -3.47724205	     21.24087615	    -14.27780583	     -1.63732071	     65.88252300	     65.88252300	     13.13788526	    -18.78859915	     13.77427184	    -14.03372957	      7.40240973	      2.88850122	      2.52588940	    -14.02482916	      2.76448498	     31.10024222	     45.70953072	      0.00000000	      0.00000000	      9.03073548	    -13.72481252	     -4.01370310	     94.52641713	     48.03660234	      0.00000000	      0.00000000
     35.69442857	     -4.56533192	     -6.15315695	     -1.05943805	      1.02451179	      0.91962453	      0.53358066	     21.38453144	      3.43440628	    -15.57371767	     23.06151376	     23.06151376	      9.25306750	      2.01535884	     -3.47461088	     23.13673202	    -14.82959321	     -1.72801086	     67.35835026	     67.35835026	     13.05038517	    -18.93648360	     13.97582374	    -14.20790050	      7.38488966	      3.11197762	      4.75485317	    -14.46650389	      2.63591890	     31.86734246	     45.70725322	      0.00000000	      0.00000000	      7.59039186	    -13.37234907	     -3.51334337	     92.88550884	     47.96786106	      0.00000000	      0.00000000
     35.70600000	     -4.56978620	     -6.13872747	     -1.01169967	      1.02392798	      0.92104863	      0.53534597	     20.48125076	      3.55280319	    -15.89570060	     22.41236004	     22.41236004	      9.57262394	      2.86678018	     -3.45347525	     24.97796546	    -15.19775387	     -1.70969872	     68.37256521	     68.37256521	     13.28895077	    -19.01565586	     14.75152619	    -14.30971595	      7.31560637	      3.21132745	      7.19633806	    -14.81712622	      2.61132566	     32.37321836	     45.71283677	      0.00000000	      0.00000000	      6.56972938	    -13.01105970	     -3.29944350	     89.68572063	     47.89572729	      0.00000000	      0.00000000
     35.71757143	     -4.60813470	     -6.09664186	     -0.98509438	      1.02324012	      0.92235427	      0.53696902	     19.68727230	      3.63595802	    -16.12975622	     21.87988990	     21.87988990	      9.89386158	      3.61568489	     -3.34435394	     26.79083352	    -15.44813636	     -1.61693076	     68.95243158	     68.95243158	     13.73328992	    -19.02523806	     15.77442183	    -14.36251214	      7.21059682	      3.73416624	      9.49380212	    -15.28577962	      2.68244924	     32.44101407	     45.73329886	      0.00000000	      0.00000000	      5.96564607	    -12.21140343	     -3.09687040	     85.90330353	     47.82363809	      0.00000000	      0.00000000
     35.72914286	     -4.64404398	     -6.10136947	     -0.90906080	      1.02248891	      0.92357733	      0.53847934	     18.84481646	      3.80566378	    -16.29016037	     21.22578146	     21.22578146	     10.13984668	      4.11196498	     -3.25574146	     28.50458868	    -15.69607239	     -1.44287330	     69.02722959	     69.02722959	     13.85572740	    -19.01116016	     15.82189586	    -14.45775173	      7.13956745	      3.73929111	     11.95309961	    -15.59104282	      2.58125139	     33.29973184	     45.72742958	      0.00000000	      0.00000000	      4.70543686	    -12.00046841	     -2.82914690	     83.18451324	     47.75273404	      0.00000000	      0.00000000
